<svg width="16" height="16" viewBox="0 0 16 16" fill="none" xmlns="http://www.w3.org/2000/svg">
<path d="M11.3636 13.5164C10.7105 14.1495 9.99731 14.0495 9.31083 13.7496C8.58436 13.443 7.91787 13.4297 7.15141 13.7496C6.19167 14.1628 5.68514 14.0429 5.11196 13.5164C1.8595 10.1639 2.33937 5.05863 6.03171 4.87201C6.93147 4.91867 7.55797 5.36521 8.08449 5.4052C8.87095 5.24524 9.62408 4.78537 10.4639 4.84535C11.4702 4.92533 12.23 5.32522 12.7299 6.04503C10.6505 7.29136 11.1437 10.0306 13.0498 10.7971C12.6699 11.7968 12.1767 12.7899 11.3569 13.523L11.3636 13.5164ZM8.01784 4.83202C7.91787 3.34576 9.12421 2.11942 10.5105 1.99945C10.7038 3.71899 8.95092 4.99864 8.01784 4.83202Z" fill="white"/>
</svg>
